<?xml version="1.0" encoding="UTF-8"?>
<svg xmlns="http://www.w3.org/2000/svg" viewBox="0 0 24 24" width="24" height="24">
  <defs>
    <linearGradient id="g1" x1="0" x2="1" y1="0" y2="1">
      <stop offset="0%" stop-color="#10b981"/>
      <stop offset="100%" stop-color="#059669"/>
    </linearGradient>
  </defs>
  <rect width="24" height="24" rx="6" fill="url(#g1)" opacity="0.36" stroke="rgba(0,0,0,0.04)"/>
  <path fill="#0F172A" d="M6.62 10.79a15.53 15.53 0 006.59 6.59l1.92-1.92a1 1 0 011.01-.24c1.12.37 2.33.57 3.57.57a1 1 0 011 1V20a1 1 0 01-1 1C10.07 21 3 13.93 3 4a1 1 0 011-1h2.75a1 1 0 011 1c0 1.24.2 2.45.57 3.57a1 1 0 01-.24 1.01l-1.46 1.21z"/>
</svg>
